<svg xmlns="http://www.w3.org/2000/svg" viewBox="0 0 1439 276"
  role="img" aria-labelledby="title desc">
  <title id="title">gh-vault</title>
  <desc id="desc">An octagonal vault door with a Git branch lock beside the GH-VAULT wordmark</desc>
  <defs>
    <clipPath id="gh-vault-mark-band">
      <rect x="0" y="154.000" width="240" height="22.000"/>
    </clipPath>
  </defs>
  <g transform="translate(42 18) scale(1.0)">
    <path d="M72 18H168L222 72V168L168 222H72L18 168V72Z" fill="#ca1a0f"/>
    <path d="M72 18H168L222 72V168L168 222H72L18 168V72Z" fill="#ff6a3d" clip-path="url(#gh-vault-mark-band)"/>
    <path d="M120 48A72 72 0 1 1 119.9 48Z" fill="none" stroke="#7a0d06" stroke-width="12"/>
    <path d="M120 80V154M120 112H78V82M120 126H164V96" fill="none" stroke="#7a0d06" stroke-width="13" stroke-linecap="round" stroke-linejoin="round"/>
    <circle cx="78" cy="76" r="13" fill="#7a0d06"/>
    <circle cx="164" cy="90" r="13" fill="#7a0d06"/>
    <circle cx="120" cy="73" r="13" fill="#7a0d06"/>
    <path d="M120 143A15 15 0 0 1 130 169L136 197H104L110 169A15 15 0 0 1 120 143Z" fill="#120706"/>
    <circle cx="120" cy="159" r="8" fill="#ff6a3d"/>
  </g>
  <defs><clipPath id="gh-vault-word-band"><rect x="338.00" y="172.00" width="1042.52" height="22.00"/></clipPath></defs>
  <g transform="translate(342 208) scale(0.15400000 -0.15400000)" fill="#ca1a0f"><path d="M438 -10Q318 -10 230.5 36.5Q143 83 95.0 168.5Q47 254 47 371Q47 493 98.0 585.0Q149 677 240.0 728.5Q331 780 450 780Q512 780 568.0 763.0Q624 746 689 708L708 770H744V517H694Q681 580 649.5 624.0Q618 668 570.5 691.5Q523 715 462 715Q386 715 332.0 675.0Q278 635 249.0 560.0Q220 485 220 379Q220 224 282.5 140.5Q345 57 462 57Q518 57 558.5 77.0Q599 97 620.5 133.5Q642 170 642 221Q642 267 617.5 289.0Q593 311 537 315V355H861V315Q812 315 793.0 293.5Q774 272 774 216V83Q745 83 726.5 80.0Q708 77 687.5 67.0Q667 57 630 35Q592 13 543.5 1.5Q495 -10 438 -10Z" transform="translate(0.0000 0)"/><path d="M35 0V39.9Q80 42 102.38095238095238 50.5Q124.76190476190476 59 132.38095238095238 83.0Q140 107 140 154V616.3664717348928Q140 663 133.49122807017545 686.5Q126.98245614035088 710 106.99122807017544 719.0Q87 728 46 730.1V770H391V730Q345.82828282828285 729 323.7676767676768 719.5Q301.7070707070707 710 294.35353535353534 685.0Q287 660 287 609V425H658V616Q658 663 650.65 686.5Q643.3 710 620.7249999999999 719.0Q598.15 728 553 730V770H899V730.0512820512821Q859 729 838.75 719.5Q818.5 710 811.75 685.0Q805 660 805 609V160.5944333996024Q805 110 812.258064516129 84.5Q819.516129032258 59 842.258064516129 50.5Q865 42 910 39.9V0H543V40Q592.1363636363636 42 616.7045454545455 50.5Q641.2727272727273 59 649.6363636363636 83.0Q658 107 658 154V363H287V161Q287 110 294.8440366972477 84.5Q302.6880733944954 59 327.26605504587155 50.5Q351.8440366972477 42 401 40V0Z" transform="translate(927.9481 0)"/><path d="M391 243H66V337H391Z" transform="translate(1924.8961 0)"/><path d="M278 610 438 172 568 505Q594 571 606.0 606.0Q618 641 622.0 659.0Q626 677 626 691Q626 715 608.0 722.5Q590 730 536 730V770H820V730Q778 730 750.0 710.0Q722 690 705 649L442 -10H368L129 574Q103 637 81.5 670.5Q60 704 34.0 716.5Q8 729 -31 729V770H347V729Q295 728 276.5 719.5Q258 711 258 689Q258 676 263.0 656.5Q268 637 278 610Z" transform="translate(2433.8442 0)"/><path d="M-13 0V40Q35 45 60.0 61.5Q85 78 102 121L365 780H439L678 196Q699 145 714.0 115.5Q729 86 745.0 71.0Q761 56 782.5 50.0Q804 44 838 41V0H460V41Q508 43 529.0 51.0Q550 59 550 83Q550 97 543.0 119.5Q536 142 524 173L501 233H218Q194 179 182.5 143.0Q171 107 171 86Q171 56 193.5 48.0Q216 40 261 40V0ZM241 293H479L364 596H360Z" transform="translate(3290.7922 0)"/><path d="M757 522V310Q757 197 723.5 126.5Q690 56 619.0 23.0Q548 -10 433 -10Q326 -10 257.0 19.5Q188 49 155.5 112.0Q123 175 123 273V547Q123 599 121.5 630.0Q120 661 116.0 678.5Q112 696 105 706Q96 720 79.0 725.0Q62 730 27 730V770H386V730Q344 730 324.0 725.5Q304 721 293 708Q280 692 275.0 658.5Q270 625 270 547V285Q270 172 319.0 117.0Q368 62 468 62Q572 62 623.0 119.0Q674 176 674 291V522Q674 605 668.0 644.5Q662 684 645 703Q632 717 609.5 723.5Q587 730 548 730V770H872V730Q835 730 815.0 724.5Q795 719 784 705Q769 686 763.0 645.5Q757 605 757 522Z" transform="translate(4151.7403 0)"/><path d="M35 0V39.9Q80 42 102.38095238095238 50.5Q124.76190476190476 59 132.38095238095238 83.0Q140 107 140 154V616.3664717348928Q140 663 133.0 686.5Q126 710 106.0 719.0Q86 728 46 730V770H391V730.0512820512821Q346 729 323.875 719.5Q301.75 710 294.375 685.0Q287 660 287 609V190Q287 134 303.5 105.0Q320 76 359.265306122449 65.5Q398.53061224489795 55 468 55Q545.4610778443114 55 590.7305389221557 69.0Q636 83 660.5 120.0Q685 157 699.8076923076923 227H740L724.0015128593041 0Z" transform="translate(5083.6883 0)"/><path d="M804.6339869281046 770 815 550H772Q767.8048780487804 616.0819672131147 748.4024390243902 652.5409836065573Q729 689 693.5 703.5Q658 718 604 718Q552.5 718 526.75 715.5Q501 713 493.0 706.24Q485 699.48 485 687V163Q485 120 493.8953488372093 93.5Q502.7906976744186 67 532.0930232558139 54.5Q561.3953488372093 42 620 40V0H201V39.9Q261 42 290.0068493150685 54.5Q319.013698630137 67 328.5068493150685 93.5Q338 120 338 163V687.2413162705667Q338 699 331.0 706.0Q324 713 302.0 715.5Q280 718 235 718Q199 718 166.0 714.1Q133 710.2 108.0 694.6Q83 679 68.03225806451613 644.7522123893805Q53.064516129032256 610.5044247787611 51 550H12L22 770Z" transform="translate(5890.6364 0)"/></g>
  <g clip-path="url(#gh-vault-word-band)"><g transform="translate(342 208) scale(0.15400000 -0.15400000)" fill="#ff6a3d"><path d="M438 -10Q318 -10 230.5 36.5Q143 83 95.0 168.5Q47 254 47 371Q47 493 98.0 585.0Q149 677 240.0 728.5Q331 780 450 780Q512 780 568.0 763.0Q624 746 689 708L708 770H744V517H694Q681 580 649.5 624.0Q618 668 570.5 691.5Q523 715 462 715Q386 715 332.0 675.0Q278 635 249.0 560.0Q220 485 220 379Q220 224 282.5 140.5Q345 57 462 57Q518 57 558.5 77.0Q599 97 620.5 133.5Q642 170 642 221Q642 267 617.5 289.0Q593 311 537 315V355H861V315Q812 315 793.0 293.5Q774 272 774 216V83Q745 83 726.5 80.0Q708 77 687.5 67.0Q667 57 630 35Q592 13 543.5 1.5Q495 -10 438 -10Z" transform="translate(0.0000 0)"/><path d="M35 0V39.9Q80 42 102.38095238095238 50.5Q124.76190476190476 59 132.38095238095238 83.0Q140 107 140 154V616.3664717348928Q140 663 133.49122807017545 686.5Q126.98245614035088 710 106.99122807017544 719.0Q87 728 46 730.1V770H391V730Q345.82828282828285 729 323.7676767676768 719.5Q301.7070707070707 710 294.35353535353534 685.0Q287 660 287 609V425H658V616Q658 663 650.65 686.5Q643.3 710 620.7249999999999 719.0Q598.15 728 553 730V770H899V730.0512820512821Q859 729 838.75 719.5Q818.5 710 811.75 685.0Q805 660 805 609V160.5944333996024Q805 110 812.258064516129 84.5Q819.516129032258 59 842.258064516129 50.5Q865 42 910 39.9V0H543V40Q592.1363636363636 42 616.7045454545455 50.5Q641.2727272727273 59 649.6363636363636 83.0Q658 107 658 154V363H287V161Q287 110 294.8440366972477 84.5Q302.6880733944954 59 327.26605504587155 50.5Q351.8440366972477 42 401 40V0Z" transform="translate(927.9481 0)"/><path d="M391 243H66V337H391Z" transform="translate(1924.8961 0)"/><path d="M278 610 438 172 568 505Q594 571 606.0 606.0Q618 641 622.0 659.0Q626 677 626 691Q626 715 608.0 722.5Q590 730 536 730V770H820V730Q778 730 750.0 710.0Q722 690 705 649L442 -10H368L129 574Q103 637 81.5 670.5Q60 704 34.0 716.5Q8 729 -31 729V770H347V729Q295 728 276.5 719.5Q258 711 258 689Q258 676 263.0 656.5Q268 637 278 610Z" transform="translate(2433.8442 0)"/><path d="M-13 0V40Q35 45 60.0 61.5Q85 78 102 121L365 780H439L678 196Q699 145 714.0 115.5Q729 86 745.0 71.0Q761 56 782.5 50.0Q804 44 838 41V0H460V41Q508 43 529.0 51.0Q550 59 550 83Q550 97 543.0 119.5Q536 142 524 173L501 233H218Q194 179 182.5 143.0Q171 107 171 86Q171 56 193.5 48.0Q216 40 261 40V0ZM241 293H479L364 596H360Z" transform="translate(3290.7922 0)"/><path d="M757 522V310Q757 197 723.5 126.5Q690 56 619.0 23.0Q548 -10 433 -10Q326 -10 257.0 19.5Q188 49 155.5 112.0Q123 175 123 273V547Q123 599 121.5 630.0Q120 661 116.0 678.5Q112 696 105 706Q96 720 79.0 725.0Q62 730 27 730V770H386V730Q344 730 324.0 725.5Q304 721 293 708Q280 692 275.0 658.5Q270 625 270 547V285Q270 172 319.0 117.0Q368 62 468 62Q572 62 623.0 119.0Q674 176 674 291V522Q674 605 668.0 644.5Q662 684 645 703Q632 717 609.5 723.5Q587 730 548 730V770H872V730Q835 730 815.0 724.5Q795 719 784 705Q769 686 763.0 645.5Q757 605 757 522Z" transform="translate(4151.7403 0)"/><path d="M35 0V39.9Q80 42 102.38095238095238 50.5Q124.76190476190476 59 132.38095238095238 83.0Q140 107 140 154V616.3664717348928Q140 663 133.0 686.5Q126 710 106.0 719.0Q86 728 46 730V770H391V730.0512820512821Q346 729 323.875 719.5Q301.75 710 294.375 685.0Q287 660 287 609V190Q287 134 303.5 105.0Q320 76 359.265306122449 65.5Q398.53061224489795 55 468 55Q545.4610778443114 55 590.7305389221557 69.0Q636 83 660.5 120.0Q685 157 699.8076923076923 227H740L724.0015128593041 0Z" transform="translate(5083.6883 0)"/><path d="M804.6339869281046 770 815 550H772Q767.8048780487804 616.0819672131147 748.4024390243902 652.5409836065573Q729 689 693.5 703.5Q658 718 604 718Q552.5 718 526.75 715.5Q501 713 493.0 706.24Q485 699.48 485 687V163Q485 120 493.8953488372093 93.5Q502.7906976744186 67 532.0930232558139 54.5Q561.3953488372093 42 620 40V0H201V39.9Q261 42 290.0068493150685 54.5Q319.013698630137 67 328.5068493150685 93.5Q338 120 338 163V687.2413162705667Q338 699 331.0 706.0Q324 713 302.0 715.5Q280 718 235 718Q199 718 166.0 714.1Q133 710.2 108.0 694.6Q83 679 68.03225806451613 644.7522123893805Q53.064516129032256 610.5044247787611 51 550H12L22 770Z" transform="translate(5890.6364 0)"/></g></g>
</svg>
