<svg xmlns="http://www.w3.org/2000/svg" viewBox="0 0 1200 630"
  role="img" aria-labelledby="title desc">
  <title id="title">gh-vault — encrypted GitHub credentials</title>
  <desc id="desc">Encrypted GitHub credentials and project environments. GPG-encrypted in pass · no plaintext fallback.</desc>
  <rect width="1200" height="630" fill="#120706"/>
  <path d="M0 500C225 420 390 590 620 500C830 418 970 458 1200 398V630H0Z" fill="#7a0d06" opacity="0.45"/>
  <path d="M0 556C235 478 402 626 650 532C864 452 1012 506 1200 448V630H0Z" fill="#ca1a0f" opacity="0.42"/>
  <defs>
    <clipPath id="social-mark-band">
      <rect x="0" y="154.167" width="240" height="30.556"/>
    </clipPath>
  </defs>
  <g transform="translate(70 58) scale(0.72)">
    <path d="M72 18H168L222 72V168L168 222H72L18 168V72Z" fill="#ca1a0f"/>
    <path d="M72 18H168L222 72V168L168 222H72L18 168V72Z" fill="#ff6a3d" clip-path="url(#social-mark-band)"/>
    <path d="M120 48A72 72 0 1 1 119.9 48Z" fill="none" stroke="#7a0d06" stroke-width="12"/>
    <path d="M120 80V154M120 112H78V82M120 126H164V96" fill="none" stroke="#7a0d06" stroke-width="13" stroke-linecap="round" stroke-linejoin="round"/>
    <circle cx="78" cy="76" r="13" fill="#7a0d06"/>
    <circle cx="164" cy="90" r="13" fill="#7a0d06"/>
    <circle cx="120" cy="73" r="13" fill="#7a0d06"/>
    <path d="M120 143A15 15 0 0 1 130 169L136 197H104L110 169A15 15 0 0 1 120 143Z" fill="#120706"/>
    <circle cx="120" cy="159" r="8" fill="#ff6a3d"/>
  </g>
  <defs><clipPath id="social-word-band"><rect x="282.00" y="169.00" width="760.38" height="22.00"/></clipPath></defs>
  <g transform="translate(286 196) scale(0.11200000 -0.11200000)" fill="#ca1a0f"><path d="M438 -10Q318 -10 230.5 36.5Q143 83 95.0 168.5Q47 254 47 371Q47 493 98.0 585.0Q149 677 240.0 728.5Q331 780 450 780Q512 780 568.0 763.0Q624 746 689 708L708 770H744V517H694Q681 580 649.5 624.0Q618 668 570.5 691.5Q523 715 462 715Q386 715 332.0 675.0Q278 635 249.0 560.0Q220 485 220 379Q220 224 282.5 140.5Q345 57 462 57Q518 57 558.5 77.0Q599 97 620.5 133.5Q642 170 642 221Q642 267 617.5 289.0Q593 311 537 315V355H861V315Q812 315 793.0 293.5Q774 272 774 216V83Q745 83 726.5 80.0Q708 77 687.5 67.0Q667 57 630 35Q592 13 543.5 1.5Q495 -10 438 -10Z" transform="translate(0.0000 0)"/><path d="M35 0V39.9Q80 42 102.38095238095238 50.5Q124.76190476190476 59 132.38095238095238 83.0Q140 107 140 154V616.3664717348928Q140 663 133.49122807017545 686.5Q126.98245614035088 710 106.99122807017544 719.0Q87 728 46 730.1V770H391V730Q345.82828282828285 729 323.7676767676768 719.5Q301.7070707070707 710 294.35353535353534 685.0Q287 660 287 609V425H658V616Q658 663 650.65 686.5Q643.3 710 620.7249999999999 719.0Q598.15 728 553 730V770H899V730.0512820512821Q859 729 838.75 719.5Q818.5 710 811.75 685.0Q805 660 805 609V160.5944333996024Q805 110 812.258064516129 84.5Q819.516129032258 59 842.258064516129 50.5Q865 42 910 39.9V0H543V40Q592.1363636363636 42 616.7045454545455 50.5Q641.2727272727273 59 649.6363636363636 83.0Q658 107 658 154V363H287V161Q287 110 294.8440366972477 84.5Q302.6880733944954 59 327.26605504587155 50.5Q351.8440366972477 42 401 40V0Z" transform="translate(927.9481 0)"/><path d="M391 243H66V337H391Z" transform="translate(1924.8961 0)"/><path d="M278 610 438 172 568 505Q594 571 606.0 606.0Q618 641 622.0 659.0Q626 677 626 691Q626 715 608.0 722.5Q590 730 536 730V770H820V730Q778 730 750.0 710.0Q722 690 705 649L442 -10H368L129 574Q103 637 81.5 670.5Q60 704 34.0 716.5Q8 729 -31 729V770H347V729Q295 728 276.5 719.5Q258 711 258 689Q258 676 263.0 656.5Q268 637 278 610Z" transform="translate(2433.8442 0)"/><path d="M-13 0V40Q35 45 60.0 61.5Q85 78 102 121L365 780H439L678 196Q699 145 714.0 115.5Q729 86 745.0 71.0Q761 56 782.5 50.0Q804 44 838 41V0H460V41Q508 43 529.0 51.0Q550 59 550 83Q550 97 543.0 119.5Q536 142 524 173L501 233H218Q194 179 182.5 143.0Q171 107 171 86Q171 56 193.5 48.0Q216 40 261 40V0ZM241 293H479L364 596H360Z" transform="translate(3290.7922 0)"/><path d="M757 522V310Q757 197 723.5 126.5Q690 56 619.0 23.0Q548 -10 433 -10Q326 -10 257.0 19.5Q188 49 155.5 112.0Q123 175 123 273V547Q123 599 121.5 630.0Q120 661 116.0 678.5Q112 696 105 706Q96 720 79.0 725.0Q62 730 27 730V770H386V730Q344 730 324.0 725.5Q304 721 293 708Q280 692 275.0 658.5Q270 625 270 547V285Q270 172 319.0 117.0Q368 62 468 62Q572 62 623.0 119.0Q674 176 674 291V522Q674 605 668.0 644.5Q662 684 645 703Q632 717 609.5 723.5Q587 730 548 730V770H872V730Q835 730 815.0 724.5Q795 719 784 705Q769 686 763.0 645.5Q757 605 757 522Z" transform="translate(4151.7403 0)"/><path d="M35 0V39.9Q80 42 102.38095238095238 50.5Q124.76190476190476 59 132.38095238095238 83.0Q140 107 140 154V616.3664717348928Q140 663 133.0 686.5Q126 710 106.0 719.0Q86 728 46 730V770H391V730.0512820512821Q346 729 323.875 719.5Q301.75 710 294.375 685.0Q287 660 287 609V190Q287 134 303.5 105.0Q320 76 359.265306122449 65.5Q398.53061224489795 55 468 55Q545.4610778443114 55 590.7305389221557 69.0Q636 83 660.5 120.0Q685 157 699.8076923076923 227H740L724.0015128593041 0Z" transform="translate(5083.6883 0)"/><path d="M804.6339869281046 770 815 550H772Q767.8048780487804 616.0819672131147 748.4024390243902 652.5409836065573Q729 689 693.5 703.5Q658 718 604 718Q552.5 718 526.75 715.5Q501 713 493.0 706.24Q485 699.48 485 687V163Q485 120 493.8953488372093 93.5Q502.7906976744186 67 532.0930232558139 54.5Q561.3953488372093 42 620 40V0H201V39.9Q261 42 290.0068493150685 54.5Q319.013698630137 67 328.5068493150685 93.5Q338 120 338 163V687.2413162705667Q338 699 331.0 706.0Q324 713 302.0 715.5Q280 718 235 718Q199 718 166.0 714.1Q133 710.2 108.0 694.6Q83 679 68.03225806451613 644.7522123893805Q53.064516129032256 610.5044247787611 51 550H12L22 770Z" transform="translate(5890.6364 0)"/></g>
  <g clip-path="url(#social-word-band)"><g transform="translate(286 196) scale(0.11200000 -0.11200000)" fill="#ff6a3d"><path d="M438 -10Q318 -10 230.5 36.5Q143 83 95.0 168.5Q47 254 47 371Q47 493 98.0 585.0Q149 677 240.0 728.5Q331 780 450 780Q512 780 568.0 763.0Q624 746 689 708L708 770H744V517H694Q681 580 649.5 624.0Q618 668 570.5 691.5Q523 715 462 715Q386 715 332.0 675.0Q278 635 249.0 560.0Q220 485 220 379Q220 224 282.5 140.5Q345 57 462 57Q518 57 558.5 77.0Q599 97 620.5 133.5Q642 170 642 221Q642 267 617.5 289.0Q593 311 537 315V355H861V315Q812 315 793.0 293.5Q774 272 774 216V83Q745 83 726.5 80.0Q708 77 687.5 67.0Q667 57 630 35Q592 13 543.5 1.5Q495 -10 438 -10Z" transform="translate(0.0000 0)"/><path d="M35 0V39.9Q80 42 102.38095238095238 50.5Q124.76190476190476 59 132.38095238095238 83.0Q140 107 140 154V616.3664717348928Q140 663 133.49122807017545 686.5Q126.98245614035088 710 106.99122807017544 719.0Q87 728 46 730.1V770H391V730Q345.82828282828285 729 323.7676767676768 719.5Q301.7070707070707 710 294.35353535353534 685.0Q287 660 287 609V425H658V616Q658 663 650.65 686.5Q643.3 710 620.7249999999999 719.0Q598.15 728 553 730V770H899V730.0512820512821Q859 729 838.75 719.5Q818.5 710 811.75 685.0Q805 660 805 609V160.5944333996024Q805 110 812.258064516129 84.5Q819.516129032258 59 842.258064516129 50.5Q865 42 910 39.9V0H543V40Q592.1363636363636 42 616.7045454545455 50.5Q641.2727272727273 59 649.6363636363636 83.0Q658 107 658 154V363H287V161Q287 110 294.8440366972477 84.5Q302.6880733944954 59 327.26605504587155 50.5Q351.8440366972477 42 401 40V0Z" transform="translate(927.9481 0)"/><path d="M391 243H66V337H391Z" transform="translate(1924.8961 0)"/><path d="M278 610 438 172 568 505Q594 571 606.0 606.0Q618 641 622.0 659.0Q626 677 626 691Q626 715 608.0 722.5Q590 730 536 730V770H820V730Q778 730 750.0 710.0Q722 690 705 649L442 -10H368L129 574Q103 637 81.5 670.5Q60 704 34.0 716.5Q8 729 -31 729V770H347V729Q295 728 276.5 719.5Q258 711 258 689Q258 676 263.0 656.5Q268 637 278 610Z" transform="translate(2433.8442 0)"/><path d="M-13 0V40Q35 45 60.0 61.5Q85 78 102 121L365 780H439L678 196Q699 145 714.0 115.5Q729 86 745.0 71.0Q761 56 782.5 50.0Q804 44 838 41V0H460V41Q508 43 529.0 51.0Q550 59 550 83Q550 97 543.0 119.5Q536 142 524 173L501 233H218Q194 179 182.5 143.0Q171 107 171 86Q171 56 193.5 48.0Q216 40 261 40V0ZM241 293H479L364 596H360Z" transform="translate(3290.7922 0)"/><path d="M757 522V310Q757 197 723.5 126.5Q690 56 619.0 23.0Q548 -10 433 -10Q326 -10 257.0 19.5Q188 49 155.5 112.0Q123 175 123 273V547Q123 599 121.5 630.0Q120 661 116.0 678.5Q112 696 105 706Q96 720 79.0 725.0Q62 730 27 730V770H386V730Q344 730 324.0 725.5Q304 721 293 708Q280 692 275.0 658.5Q270 625 270 547V285Q270 172 319.0 117.0Q368 62 468 62Q572 62 623.0 119.0Q674 176 674 291V522Q674 605 668.0 644.5Q662 684 645 703Q632 717 609.5 723.5Q587 730 548 730V770H872V730Q835 730 815.0 724.5Q795 719 784 705Q769 686 763.0 645.5Q757 605 757 522Z" transform="translate(4151.7403 0)"/><path d="M35 0V39.9Q80 42 102.38095238095238 50.5Q124.76190476190476 59 132.38095238095238 83.0Q140 107 140 154V616.3664717348928Q140 663 133.0 686.5Q126 710 106.0 719.0Q86 728 46 730V770H391V730.0512820512821Q346 729 323.875 719.5Q301.75 710 294.375 685.0Q287 660 287 609V190Q287 134 303.5 105.0Q320 76 359.265306122449 65.5Q398.53061224489795 55 468 55Q545.4610778443114 55 590.7305389221557 69.0Q636 83 660.5 120.0Q685 157 699.8076923076923 227H740L724.0015128593041 0Z" transform="translate(5083.6883 0)"/><path d="M804.6339869281046 770 815 550H772Q767.8048780487804 616.0819672131147 748.4024390243902 652.5409836065573Q729 689 693.5 703.5Q658 718 604 718Q552.5 718 526.75 715.5Q501 713 493.0 706.24Q485 699.48 485 687V163Q485 120 493.8953488372093 93.5Q502.7906976744186 67 532.0930232558139 54.5Q561.3953488372093 42 620 40V0H201V39.9Q261 42 290.0068493150685 54.5Q319.013698630137 67 328.5068493150685 93.5Q338 120 338 163V687.2413162705667Q338 699 331.0 706.0Q324 713 302.0 715.5Q280 718 235 718Q199 718 166.0 714.1Q133 710.2 108.0 694.6Q83 679 68.03225806451613 644.7522123893805Q53.064516129032256 610.5044247787611 51 550H12L22 770Z" transform="translate(5890.6364 0)"/></g></g>
  <rect x="78" y="274" width="1044" height="3" fill="#ff6a3d"/>
  <g transform="translate(78 360) scale(0.03000000 -0.03000000)" fill="#fff1e8"><path d="M287 680V426Q351 426 390.0 430.0Q429 434 450.5 446.5Q472 459 481.5 483.5Q491 508 495 548H532V255H495Q489 296 478.5 320.0Q468 344 447.0 355.5Q426 367 388.0 371.0Q350 375 287 375V169Q287 126 303.0 101.0Q319 76 356.5 65.5Q394 55 458 55Q534 55 579.5 70.0Q625 85 650.0 123.0Q675 161 689 229H729L713 0H35V40Q80 42 102.5 50.5Q125 59 132.5 83.0Q140 107 140 154V616Q140 663 133.0 686.5Q126 710 106.0 719.0Q86 728 46 730V770H678L685 574H642Q634 630 613.0 661.0Q592 692 550.5 704.5Q509 717 438 717H325Q300 717 293.5 710.5Q287 704 287 680Z" transform="translate(0.0000 0)"/><path d="M257 301V163Q257 109 262.0 84.0Q267 59 285.5 51.0Q304 43 344 40V0H29V40Q68 43 87.0 50.5Q106 58 112.0 82.0Q118 106 118 156V281Q118 340 116.0 376.5Q114 413 111 426Q105 452 88.0 460.0Q71 468 25 468V502L218 540L231 452H235Q268 493 313.5 516.5Q359 540 412 540Q476 540 515.5 522.5Q555 505 586 464Q603 441 616.0 404.5Q629 368 629 304V163Q629 109 634.0 84.0Q639 59 657.5 51.0Q676 43 714 40V0H401V40Q441 42 459.5 50.0Q478 58 484.0 82.5Q490 107 490 156V292Q490 394 464.5 434.5Q439 475 374 475Q342 475 319.0 457.0Q296 439 279 407Q273 395 268.0 378.0Q263 361 260.0 341.5Q257 322 257 301Z" transform="translate(764.0000 0)"/><path d="M502 121 528 83Q491 39 434.0 14.5Q377 -10 310 -10Q229 -10 168.0 24.5Q107 59 73.0 120.5Q39 182 39 262Q39 346 75.5 408.5Q112 471 177.0 505.5Q242 540 329 540Q388 540 435.0 524.5Q482 509 509.0 482.0Q536 455 536 420Q536 394 520.0 376.5Q504 359 474 359Q446 359 430.5 373.5Q415 388 400 410Q382 437 370.5 452.5Q359 468 348.0 475.0Q337 482 317 482Q258 482 225.5 429.0Q193 376 193 278Q193 172 231.5 114.0Q270 56 343 56Q383 56 424.0 73.0Q465 90 502 121Z" transform="translate(1491.0000 0)"/><path d="M258 203V155Q258 104 265.0 79.5Q272 55 295.0 48.0Q318 41 364 40V0H30V40Q71 43 89.5 51.0Q108 59 113.5 83.0Q119 107 119 157V279Q119 341 115.5 378.5Q112 416 102.5 435.5Q93 455 74.5 461.5Q56 468 26 468V503L226 540L242 425H246Q273 478 317.0 509.0Q361 540 410 540Q448 540 472.0 521.0Q496 502 496 473Q496 441 477.5 419.0Q459 397 427 397Q407 397 392.5 407.0Q378 417 366.0 427.0Q354 437 340 437Q321 437 304.0 412.0Q287 387 276 345Q268 315 263.0 277.5Q258 240 258 203Z" transform="translate(2055.0000 0)"/><path d="M516 323 287 -157Q266 -201 223.0 -230.5Q180 -260 136 -260Q103 -260 83.0 -244.0Q63 -228 63 -201Q63 -176 80.5 -162.0Q98 -148 137 -145Q183 -141 211.0 -127.0Q239 -113 252 -89L279 -37L102 401Q87 440 75.5 458.5Q64 477 49.0 483.0Q34 489 8 490V530H311V490Q272 490 256.5 482.5Q241 475 241 455Q241 448 243.5 437.0Q246 426 250 415L352 123H356L442 318Q460 360 469.5 383.5Q479 407 482.5 421.0Q486 435 486 446Q486 472 471.5 481.0Q457 490 413 490V530H654V490Q635 490 620.5 484.5Q606 479 592.0 462.0Q578 445 560.0 412.0Q542 379 516 323Z" transform="translate(2553.0000 0)"/><path d="M19 -250V-208Q55 -207 74.0 -197.5Q93 -188 99.5 -163.0Q106 -138 106 -90V282Q106 328 104.0 370.0Q102 412 99 428Q95 451 77.0 460.0Q59 469 17 469V508L218 536V465H222Q255 503 298.0 521.5Q341 540 394 540Q472 540 531.5 504.5Q591 469 625.0 407.0Q659 345 659 265Q659 186 625.0 123.5Q591 61 532.0 25.5Q473 -10 396 -10Q347 -10 310.5 6.0Q274 22 248 56H244V-83Q244 -136 252.5 -162.0Q261 -188 286.5 -197.0Q312 -206 364 -208V-250ZM388 56Q449 56 478.5 107.0Q508 158 508 263Q508 336 494.5 384.5Q481 433 454.5 458.0Q428 483 388 483Q356 483 327.0 469.0Q298 455 281 432Q265 410 255.5 375.0Q246 340 246 300V232Q246 198 255.0 167.0Q264 136 281 111Q300 84 327.0 70.0Q354 56 388 56Z" transform="translate(3199.0000 0)"/><path d="M98 475H25V520Q84 537 125.0 572.0Q166 607 186 651H237V530H352V475H237V168Q237 107 251.0 80.5Q265 54 296 54Q316 54 330.5 62.5Q345 71 355 90L376 61Q348 -10 244 -10Q175 -10 136.5 22.0Q98 54 98 112Z" transform="translate(3896.0000 0)"/><path d="M512 128 540 93Q449 -10 313 -10Q231 -10 169.0 24.0Q107 58 72.5 118.5Q38 179 38 258Q38 341 74.5 404.5Q111 468 176.0 504.0Q241 540 325 540Q431 540 490.0 482.5Q549 425 549 323Q549 307 544.0 303.5Q539 300 516 300H194Q192 295 191.0 287.0Q190 279 190 267Q190 202 209.5 154.5Q229 107 264.5 81.0Q300 55 348 55Q390 55 431.5 74.0Q473 93 512 128ZM201 356H346Q387 356 398.0 360.5Q409 365 409 382Q409 426 384.0 454.0Q359 482 321 482Q278 482 244.5 446.5Q211 411 201 356Z" transform="translate(4278.0000 0)"/><path d="M298 -10Q222 -10 163.5 24.5Q105 59 72.0 120.5Q39 182 39 261Q39 341 72.0 404.0Q105 467 162.5 503.5Q220 540 292 540Q342 540 381.0 525.0Q420 510 448 474H452V559Q452 618 450.5 660.5Q449 703 446 716Q442 737 416.0 746.5Q390 756 337 756V790L590 830V258Q590 184 591.5 143.0Q593 102 597 81Q602 55 615.0 47.5Q628 40 671 40V1L481 -10V64H477Q443 27 397.5 8.5Q352 -10 298 -10ZM450 248V287Q450 325 442.0 357.5Q434 390 418 415Q400 444 372.0 459.0Q344 474 312 474Q254 474 222.5 419.5Q191 365 191 263Q191 160 222.0 103.5Q253 47 311 47Q344 47 374.0 64.0Q404 81 423 110Q437 132 443.5 164.5Q450 197 450 248Z" transform="translate(4863.0000 0)"/><path d="M438 -10Q318 -10 230.5 36.5Q143 83 95.0 168.5Q47 254 47 371Q47 493 98.0 585.0Q149 677 240.0 728.5Q331 780 450 780Q512 780 568.0 763.0Q624 746 689 708L708 770H744V517H694Q681 580 649.5 624.0Q618 668 570.5 691.5Q523 715 462 715Q386 715 332.0 675.0Q278 635 249.0 560.0Q220 485 220 379Q220 224 282.5 140.5Q345 57 462 57Q518 57 558.5 77.0Q599 97 620.5 133.5Q642 170 642 221Q642 267 617.5 289.0Q593 311 537 315V355H861V315Q812 315 793.0 293.5Q774 272 774 216V83Q745 83 726.5 80.0Q708 77 687.5 67.0Q667 57 630 35Q592 13 543.5 1.5Q495 -10 438 -10Z" transform="translate(5823.0000 0)"/><path d="M257 540V164Q257 111 262.5 85.0Q268 59 287.24050632911394 50.45Q306.4810126582278 41.9 344 40V0H29V39.729729729729726Q67 42 86.0090909090909 51.5Q105.01818181818182 61 111.5090909090909 85.5Q118 110 118 157V280Q118 338 116.0 376.0Q114 414 111 427Q106 452 88.5 460.0Q71 468 25 468V502ZM110 752.5Q110 785 132.5 807.5Q155 830 187.5 830Q220 830 242.5 807.5Q265 785 265 752.5Q265 720 242.5 697.5Q220 675 187.5 675Q155 675 132.5 697.5Q110 720 110 752.5Z" transform="translate(6699.0000 0)"/><path d="M98 475H25V520Q84 537 125.0 572.0Q166 607 186 651H237V530H352V475H237V168Q237 107 251.0 80.5Q265 54 296 54Q316 54 330.5 62.5Q345 71 355 90L376 61Q348 -10 244 -10Q175 -10 136.5 22.0Q98 54 98 112Z" transform="translate(7060.0000 0)"/><path d="M35 0V39.9Q80 42 102.38095238095238 50.5Q124.76190476190476 59 132.38095238095238 83.0Q140 107 140 154V616.3664717348928Q140 663 133.49122807017545 686.5Q126.98245614035088 710 106.99122807017544 719.0Q87 728 46 730.1V770H391V730Q345.82828282828285 729 323.7676767676768 719.5Q301.7070707070707 710 294.35353535353534 685.0Q287 660 287 609V425H658V616Q658 663 650.65 686.5Q643.3 710 620.7249999999999 719.0Q598.15 728 553 730V770H899V730.0512820512821Q859 729 838.75 719.5Q818.5 710 811.75 685.0Q805 660 805 609V160.5944333996024Q805 110 812.258064516129 84.5Q819.516129032258 59 842.258064516129 50.5Q865 42 910 39.9V0H543V40Q592.1363636363636 42 616.7045454545455 50.5Q641.2727272727273 59 649.6363636363636 83.0Q658 107 658 154V363H287V161Q287 110 294.8440366972477 84.5Q302.6880733944954 59 327.26605504587155 50.5Q351.8440366972477 42 401 40V0Z" transform="translate(7442.0000 0)"/><path d="M465 262V366Q465 420 460.0 445.0Q455 470 437.0 478.0Q419 486 378 490V530H604V227Q604 166 605.5 131.5Q607 97 611 80Q616 55 631.5 47.5Q647 40 696 40V1L497 -11L486 78H482Q457 37 409.5 13.5Q362 -10 304 -10Q252 -10 210.5 9.5Q169 29 141 66Q98 124 98 231V366Q98 407 96.0 430.5Q94 454 85.5 465.5Q77 477 60.0 482.0Q43 487 13 490V530H237V247Q237 147 262.0 101.0Q287 55 342 55Q402 55 433 109Q450 136 457.5 173.0Q465 210 465 262Z" transform="translate(8387.0000 0)"/><path d="M376 -11Q321 -11 272.5 10.5Q224 32 195 67L119 0H85V595Q85 689 72 724Q68 734 62.0 739.5Q56 745 42.0 748.5Q28 752 -1 756V790L223 830V461H227Q253 499 294.0 519.5Q335 540 387 540Q458 540 514.0 503.5Q570 467 603.0 405.0Q636 343 636 266Q636 187 600.5 124.0Q565 61 506.0 25.0Q447 -11 376 -11ZM362 47Q402 47 429.0 71.5Q456 96 470.0 144.5Q484 193 484 264Q484 333 470.5 380.5Q457 428 430.0 452.5Q403 477 362 477Q326 477 295.5 457.5Q265 438 248 403Q225 355 225 282V219Q225 170 243.0 131.0Q261 92 292.0 69.5Q323 47 362 47Z" transform="translate(9096.0000 0)"/><path d="M502 121 528 83Q491 39 434.0 14.5Q377 -10 310 -10Q229 -10 168.0 24.5Q107 59 73.0 120.5Q39 182 39 262Q39 346 75.5 408.5Q112 471 177.0 505.5Q242 540 329 540Q388 540 435.0 524.5Q482 509 509.0 482.0Q536 455 536 420Q536 394 520.0 376.5Q504 359 474 359Q446 359 430.5 373.5Q415 388 400 410Q382 437 370.5 452.5Q359 468 348.0 475.0Q337 482 317 482Q258 482 225.5 429.0Q193 376 193 278Q193 172 231.5 114.0Q270 56 343 56Q383 56 424.0 73.0Q465 90 502 121Z" transform="translate(10036.0000 0)"/><path d="M258 203V155Q258 104 265.0 79.5Q272 55 295.0 48.0Q318 41 364 40V0H30V40Q71 43 89.5 51.0Q108 59 113.5 83.0Q119 107 119 157V279Q119 341 115.5 378.5Q112 416 102.5 435.5Q93 455 74.5 461.5Q56 468 26 468V503L226 540L242 425H246Q273 478 317.0 509.0Q361 540 410 540Q448 540 472.0 521.0Q496 502 496 473Q496 441 477.5 419.0Q459 397 427 397Q407 397 392.5 407.0Q378 417 366.0 427.0Q354 437 340 437Q321 437 304.0 412.0Q287 387 276 345Q268 315 263.0 277.5Q258 240 258 203Z" transform="translate(10600.0000 0)"/><path d="M512 128 540 93Q449 -10 313 -10Q231 -10 169.0 24.0Q107 58 72.5 118.5Q38 179 38 258Q38 341 74.5 404.5Q111 468 176.0 504.0Q241 540 325 540Q431 540 490.0 482.5Q549 425 549 323Q549 307 544.0 303.5Q539 300 516 300H194Q192 295 191.0 287.0Q190 279 190 267Q190 202 209.5 154.5Q229 107 264.5 81.0Q300 55 348 55Q390 55 431.5 74.0Q473 93 512 128ZM201 356H346Q387 356 398.0 360.5Q409 365 409 382Q409 426 384.0 454.0Q359 482 321 482Q278 482 244.5 446.5Q211 411 201 356Z" transform="translate(11098.0000 0)"/><path d="M298 -10Q222 -10 163.5 24.5Q105 59 72.0 120.5Q39 182 39 261Q39 341 72.0 404.0Q105 467 162.5 503.5Q220 540 292 540Q342 540 381.0 525.0Q420 510 448 474H452V559Q452 618 450.5 660.5Q449 703 446 716Q442 737 416.0 746.5Q390 756 337 756V790L590 830V258Q590 184 591.5 143.0Q593 102 597 81Q602 55 615.0 47.5Q628 40 671 40V1L481 -10V64H477Q443 27 397.5 8.5Q352 -10 298 -10ZM450 248V287Q450 325 442.0 357.5Q434 390 418 415Q400 444 372.0 459.0Q344 474 312 474Q254 474 222.5 419.5Q191 365 191 263Q191 160 222.0 103.5Q253 47 311 47Q344 47 374.0 64.0Q404 81 423 110Q437 132 443.5 164.5Q450 197 450 248Z" transform="translate(11683.0000 0)"/><path d="M512 128 540 93Q449 -10 313 -10Q231 -10 169.0 24.0Q107 58 72.5 118.5Q38 179 38 258Q38 341 74.5 404.5Q111 468 176.0 504.0Q241 540 325 540Q431 540 490.0 482.5Q549 425 549 323Q549 307 544.0 303.5Q539 300 516 300H194Q192 295 191.0 287.0Q190 279 190 267Q190 202 209.5 154.5Q229 107 264.5 81.0Q300 55 348 55Q390 55 431.5 74.0Q473 93 512 128ZM201 356H346Q387 356 398.0 360.5Q409 365 409 382Q409 426 384.0 454.0Q359 482 321 482Q278 482 244.5 446.5Q211 411 201 356Z" transform="translate(12377.0000 0)"/><path d="M257 301V163Q257 109 262.0 84.0Q267 59 285.5 51.0Q304 43 344 40V0H29V40Q68 43 87.0 50.5Q106 58 112.0 82.0Q118 106 118 156V281Q118 340 116.0 376.5Q114 413 111 426Q105 452 88.0 460.0Q71 468 25 468V502L218 540L231 452H235Q268 493 313.5 516.5Q359 540 412 540Q476 540 515.5 522.5Q555 505 586 464Q603 441 616.0 404.5Q629 368 629 304V163Q629 109 634.0 84.0Q639 59 657.5 51.0Q676 43 714 40V0H401V40Q441 42 459.5 50.0Q478 58 484.0 82.5Q490 107 490 156V292Q490 394 464.5 434.5Q439 475 374 475Q342 475 319.0 457.0Q296 439 279 407Q273 395 268.0 378.0Q263 361 260.0 341.5Q257 322 257 301Z" transform="translate(12962.0000 0)"/><path d="M98 475H25V520Q84 537 125.0 572.0Q166 607 186 651H237V530H352V475H237V168Q237 107 251.0 80.5Q265 54 296 54Q316 54 330.5 62.5Q345 71 355 90L376 61Q348 -10 244 -10Q175 -10 136.5 22.0Q98 54 98 112Z" transform="translate(13689.0000 0)"/><path d="M257 540V164Q257 111 262.5 85.0Q268 59 287.24050632911394 50.45Q306.4810126582278 41.9 344 40V0H29V39.729729729729726Q67 42 86.0090909090909 51.5Q105.01818181818182 61 111.5090909090909 85.5Q118 110 118 157V280Q118 338 116.0 376.0Q114 414 111 427Q106 452 88.5 460.0Q71 468 25 468V502ZM110 752.5Q110 785 132.5 807.5Q155 830 187.5 830Q220 830 242.5 807.5Q265 785 265 752.5Q265 720 242.5 697.5Q220 675 187.5 675Q155 675 132.5 697.5Q110 720 110 752.5Z" transform="translate(14071.0000 0)"/><path d="M453 -10Q407 -10 382.5 17.5Q358 45 358 97H353Q326 47 279.0 19.0Q232 -9 176 -9Q130 -9 98.0 8.5Q66 26 50.0 54.0Q34 82 34 114Q34 163 74.5 201.5Q115 240 204 278L344 338V380Q344 437 323.5 464.0Q303 491 261 491Q232 491 217.0 476.5Q202 462 188 424Q180 401 163.0 386.0Q146 371 118 371Q90 371 74.5 387.5Q59 404 59 432Q59 483 112.0 511.5Q165 540 268 540Q382 540 430.0 500.0Q478 460 478 364V145Q478 101 486.5 80.5Q495 60 514 60Q522 60 530.5 63.0Q539 66 547 73L562 44Q549 20 519.0 5.0Q489 -10 453 -10ZM238 84Q266 84 290.0 98.0Q314 112 329.0 136.5Q344 161 344 190V285Q281 255 244.0 232.0Q207 209 191.0 188.0Q175 167 175 143Q175 116 192.0 100.0Q209 84 238 84Z" transform="translate(14432.0000 0)"/><path d="M247 830V164Q247 111 252.5 85.0Q258 59 277.0 50.5Q296 42 334 40V0H19V40Q57 42 76.0 51.5Q95 61 101.5 85.5Q108 110 108 157V570Q108 628 106.0 666.0Q104 704 101 717Q96 742 78.5 750.0Q61 758 15 758V792Z" transform="translate(15006.0000 0)"/><path d="M107 35 85 0H54V182H96Q113 111 145.0 77.5Q177 44 228 44Q265 44 285.5 59.5Q306 75 306 102Q306 121 295.0 138.5Q284 156 260.5 174.5Q237 193 200 213Q150 241 118.5 267.5Q87 294 72.5 323.0Q58 352 58 386Q58 431 79.5 466.0Q101 501 138.0 521.0Q175 541 221 541Q252 541 283.0 532.0Q314 523 336 507L354 531H380V380H341Q318 437 293.5 462.0Q269 487 234 487Q206 487 189.5 472.0Q173 457 173 432Q173 404 198.0 379.0Q223 354 279 324Q333 295 366.5 267.0Q400 239 415.0 209.0Q430 179 430 143Q430 74 380.5 32.0Q331 -10 248 -10Q205 -10 168.0 1.5Q131 13 107 35Z" transform="translate(15361.0000 0)"/><path d="M453 -10Q407 -10 382.5 17.5Q358 45 358 97H353Q326 47 279.0 19.0Q232 -9 176 -9Q130 -9 98.0 8.5Q66 26 50.0 54.0Q34 82 34 114Q34 163 74.5 201.5Q115 240 204 278L344 338V380Q344 437 323.5 464.0Q303 491 261 491Q232 491 217.0 476.5Q202 462 188 424Q180 401 163.0 386.0Q146 371 118 371Q90 371 74.5 387.5Q59 404 59 432Q59 483 112.0 511.5Q165 540 268 540Q382 540 430.0 500.0Q478 460 478 364V145Q478 101 486.5 80.5Q495 60 514 60Q522 60 530.5 63.0Q539 66 547 73L562 44Q549 20 519.0 5.0Q489 -10 453 -10ZM238 84Q266 84 290.0 98.0Q314 112 329.0 136.5Q344 161 344 190V285Q281 255 244.0 232.0Q207 209 191.0 188.0Q175 167 175 143Q175 116 192.0 100.0Q209 84 238 84Z" transform="translate(16093.0000 0)"/><path d="M257 301V163Q257 109 262.0 84.0Q267 59 285.5 51.0Q304 43 344 40V0H29V40Q68 43 87.0 50.5Q106 58 112.0 82.0Q118 106 118 156V281Q118 340 116.0 376.5Q114 413 111 426Q105 452 88.0 460.0Q71 468 25 468V502L218 540L231 452H235Q268 493 313.5 516.5Q359 540 412 540Q476 540 515.5 522.5Q555 505 586 464Q603 441 616.0 404.5Q629 368 629 304V163Q629 109 634.0 84.0Q639 59 657.5 51.0Q676 43 714 40V0H401V40Q441 42 459.5 50.0Q478 58 484.0 82.5Q490 107 490 156V292Q490 394 464.5 434.5Q439 475 374 475Q342 475 319.0 457.0Q296 439 279 407Q273 395 268.0 378.0Q263 361 260.0 341.5Q257 322 257 301Z" transform="translate(16667.0000 0)"/><path d="M298 -10Q222 -10 163.5 24.5Q105 59 72.0 120.5Q39 182 39 261Q39 341 72.0 404.0Q105 467 162.5 503.5Q220 540 292 540Q342 540 381.0 525.0Q420 510 448 474H452V559Q452 618 450.5 660.5Q449 703 446 716Q442 737 416.0 746.5Q390 756 337 756V790L590 830V258Q590 184 591.5 143.0Q593 102 597 81Q602 55 615.0 47.5Q628 40 671 40V1L481 -10V64H477Q443 27 397.5 8.5Q352 -10 298 -10ZM450 248V287Q450 325 442.0 357.5Q434 390 418 415Q400 444 372.0 459.0Q344 474 312 474Q254 474 222.5 419.5Q191 365 191 263Q191 160 222.0 103.5Q253 47 311 47Q344 47 374.0 64.0Q404 81 423 110Q437 132 443.5 164.5Q450 197 450 248Z" transform="translate(17394.0000 0)"/><path d="M19 -250V-208Q55 -207 74.0 -197.5Q93 -188 99.5 -163.0Q106 -138 106 -90V282Q106 328 104.0 370.0Q102 412 99 428Q95 451 77.0 460.0Q59 469 17 469V508L218 536V465H222Q255 503 298.0 521.5Q341 540 394 540Q472 540 531.5 504.5Q591 469 625.0 407.0Q659 345 659 265Q659 186 625.0 123.5Q591 61 532.0 25.5Q473 -10 396 -10Q347 -10 310.5 6.0Q274 22 248 56H244V-83Q244 -136 252.5 -162.0Q261 -188 286.5 -197.0Q312 -206 364 -208V-250ZM388 56Q449 56 478.5 107.0Q508 158 508 263Q508 336 494.5 384.5Q481 433 454.5 458.0Q428 483 388 483Q356 483 327.0 469.0Q298 455 281 432Q265 410 255.5 375.0Q246 340 246 300V232Q246 198 255.0 167.0Q264 136 281 111Q300 84 327.0 70.0Q354 56 388 56Z" transform="translate(18354.0000 0)"/><path d="M258 203V155Q258 104 265.0 79.5Q272 55 295.0 48.0Q318 41 364 40V0H30V40Q71 43 89.5 51.0Q108 59 113.5 83.0Q119 107 119 157V279Q119 341 115.5 378.5Q112 416 102.5 435.5Q93 455 74.5 461.5Q56 468 26 468V503L226 540L242 425H246Q273 478 317.0 509.0Q361 540 410 540Q448 540 472.0 521.0Q496 502 496 473Q496 441 477.5 419.0Q459 397 427 397Q407 397 392.5 407.0Q378 417 366.0 427.0Q354 437 340 437Q321 437 304.0 412.0Q287 387 276 345Q268 315 263.0 277.5Q258 240 258 203Z" transform="translate(19051.0000 0)"/><path d="M328.0988023952096 540Q388 540 441.0 520.0Q494 500 535.0 463.5Q576 427 599.5 377.5Q623 328 623 269Q623 208 599.5 157.0Q576 106 535.0 68.5Q494 31 440.7547169811321 10.5Q387.50943396226415 -10 328 -10Q269.1696750902527 -10 216.64259927797835 10.5Q164.11552346570397 31 123.66967509025271 68.5Q83.22382671480145 106 60.111913357400724 157.0Q37 208 37 269Q37 348 76.93413173652695 409.0Q116.86826347305389 470 183.0748502994012 505.0Q249.2814371257485 540 328.0988023952096 540ZM328.32 482Q288 482 257.5 455.0Q227 428 210.5 379.9047619047619Q194 331.8095238095238 194 268Q194 169 230.37551867219918 110.0Q266.75103734439836 51 328.05809128630705 51Q391 51 428.5 110.25850340136054Q466 169.51700680272108 466 267.9625850340136Q466 332 449.0 380.0Q432 428 401.1428571428571 455.0Q370.2857142857143 482 328.32 482Z" transform="translate(19549.0000 0)"/><path d="M11 -260Q-65 -260 -109.0 -231.5Q-153 -203 -153 -163Q-153 -137 -136.5 -123.0Q-120 -109 -97 -109Q-71 -109 -58.0 -123.5Q-45 -138 -36 -152Q-24 -171 -10.0 -189.0Q4 -207 35 -207Q70 -207 88.5 -177.5Q107 -148 107 -78V290Q107 340 105.0 375.0Q103 410 99 427Q94 451 77.5 459.5Q61 468 14 468V502L246 540V-2Q246 -126 185.0 -193.0Q124 -260 11 -260ZM99 752Q99 785 121.5 807.5Q144 830 176 830Q209 830 231.5 807.5Q254 785 254 752Q254 720 231.5 697.5Q209 675 176 675Q144 675 121.5 697.5Q99 720 99 752Z" transform="translate(20209.0000 0)"/><path d="M512 128 540 93Q449 -10 313 -10Q231 -10 169.0 24.0Q107 58 72.5 118.5Q38 179 38 258Q38 341 74.5 404.5Q111 468 176.0 504.0Q241 540 325 540Q431 540 490.0 482.5Q549 425 549 323Q549 307 544.0 303.5Q539 300 516 300H194Q192 295 191.0 287.0Q190 279 190 267Q190 202 209.5 154.5Q229 107 264.5 81.0Q300 55 348 55Q390 55 431.5 74.0Q473 93 512 128ZM201 356H346Q387 356 398.0 360.5Q409 365 409 382Q409 426 384.0 454.0Q359 482 321 482Q278 482 244.5 446.5Q211 411 201 356Z" transform="translate(20540.0000 0)"/><path d="M502 121 528 83Q491 39 434.0 14.5Q377 -10 310 -10Q229 -10 168.0 24.5Q107 59 73.0 120.5Q39 182 39 262Q39 346 75.5 408.5Q112 471 177.0 505.5Q242 540 329 540Q388 540 435.0 524.5Q482 509 509.0 482.0Q536 455 536 420Q536 394 520.0 376.5Q504 359 474 359Q446 359 430.5 373.5Q415 388 400 410Q382 437 370.5 452.5Q359 468 348.0 475.0Q337 482 317 482Q258 482 225.5 429.0Q193 376 193 278Q193 172 231.5 114.0Q270 56 343 56Q383 56 424.0 73.0Q465 90 502 121Z" transform="translate(21125.0000 0)"/><path d="M98 475H25V520Q84 537 125.0 572.0Q166 607 186 651H237V530H352V475H237V168Q237 107 251.0 80.5Q265 54 296 54Q316 54 330.5 62.5Q345 71 355 90L376 61Q348 -10 244 -10Q175 -10 136.5 22.0Q98 54 98 112Z" transform="translate(21689.0000 0)"/><path d="M512 128 540 93Q449 -10 313 -10Q231 -10 169.0 24.0Q107 58 72.5 118.5Q38 179 38 258Q38 341 74.5 404.5Q111 468 176.0 504.0Q241 540 325 540Q431 540 490.0 482.5Q549 425 549 323Q549 307 544.0 303.5Q539 300 516 300H194Q192 295 191.0 287.0Q190 279 190 267Q190 202 209.5 154.5Q229 107 264.5 81.0Q300 55 348 55Q390 55 431.5 74.0Q473 93 512 128ZM201 356H346Q387 356 398.0 360.5Q409 365 409 382Q409 426 384.0 454.0Q359 482 321 482Q278 482 244.5 446.5Q211 411 201 356Z" transform="translate(22337.0000 0)"/><path d="M257 301V163Q257 109 262.0 84.0Q267 59 285.5 51.0Q304 43 344 40V0H29V40Q68 43 87.0 50.5Q106 58 112.0 82.0Q118 106 118 156V281Q118 340 116.0 376.5Q114 413 111 426Q105 452 88.0 460.0Q71 468 25 468V502L218 540L231 452H235Q268 493 313.5 516.5Q359 540 412 540Q476 540 515.5 522.5Q555 505 586 464Q603 441 616.0 404.5Q629 368 629 304V163Q629 109 634.0 84.0Q639 59 657.5 51.0Q676 43 714 40V0H401V40Q441 42 459.5 50.0Q478 58 484.0 82.5Q490 107 490 156V292Q490 394 464.5 434.5Q439 475 374 475Q342 475 319.0 457.0Q296 439 279 407Q273 395 268.0 378.0Q263 361 260.0 341.5Q257 322 257 301Z" transform="translate(22922.0000 0)"/><path d="M259 -10 101 401Q86 440 73.5 459.0Q61 478 45.5 484.0Q30 490 7 490V530H306V490Q273 490 257.5 486.5Q242 483 237.5 475.5Q233 468 233 457Q233 444 238.0 427.0Q243 410 250 393L345 131H349L456 392Q463 409 467.0 422.5Q471 436 471 447Q471 469 456.0 479.0Q441 489 403 490V530H624V490Q610 490 597.5 486.5Q585 483 574 473Q568 468 562.0 459.5Q556 451 550.0 440.0Q544 429 537 414L350 -10Z" transform="translate(23649.0000 0)"/><path d="M257 540V164Q257 111 262.5 85.0Q268 59 287.24050632911394 50.45Q306.4810126582278 41.9 344 40V0H29V39.729729729729726Q67 42 86.0090909090909 51.5Q105.01818181818182 61 111.5090909090909 85.5Q118 110 118 157V280Q118 338 116.0 376.0Q114 414 111 427Q106 452 88.5 460.0Q71 468 25 468V502ZM110 752.5Q110 785 132.5 807.5Q155 830 187.5 830Q220 830 242.5 807.5Q265 785 265 752.5Q265 720 242.5 697.5Q220 675 187.5 675Q155 675 132.5 697.5Q110 720 110 752.5Z" transform="translate(24273.0000 0)"/><path d="M258 203V155Q258 104 265.0 79.5Q272 55 295.0 48.0Q318 41 364 40V0H30V40Q71 43 89.5 51.0Q108 59 113.5 83.0Q119 107 119 157V279Q119 341 115.5 378.5Q112 416 102.5 435.5Q93 455 74.5 461.5Q56 468 26 468V503L226 540L242 425H246Q273 478 317.0 509.0Q361 540 410 540Q448 540 472.0 521.0Q496 502 496 473Q496 441 477.5 419.0Q459 397 427 397Q407 397 392.5 407.0Q378 417 366.0 427.0Q354 437 340 437Q321 437 304.0 412.0Q287 387 276 345Q268 315 263.0 277.5Q258 240 258 203Z" transform="translate(24634.0000 0)"/><path d="M328.0988023952096 540Q388 540 441.0 520.0Q494 500 535.0 463.5Q576 427 599.5 377.5Q623 328 623 269Q623 208 599.5 157.0Q576 106 535.0 68.5Q494 31 440.7547169811321 10.5Q387.50943396226415 -10 328 -10Q269.1696750902527 -10 216.64259927797835 10.5Q164.11552346570397 31 123.66967509025271 68.5Q83.22382671480145 106 60.111913357400724 157.0Q37 208 37 269Q37 348 76.93413173652695 409.0Q116.86826347305389 470 183.0748502994012 505.0Q249.2814371257485 540 328.0988023952096 540ZM328.32 482Q288 482 257.5 455.0Q227 428 210.5 379.9047619047619Q194 331.8095238095238 194 268Q194 169 230.37551867219918 110.0Q266.75103734439836 51 328.05809128630705 51Q391 51 428.5 110.25850340136054Q466 169.51700680272108 466 267.9625850340136Q466 332 449.0 380.0Q432 428 401.1428571428571 455.0Q370.2857142857143 482 328.32 482Z" transform="translate(25132.0000 0)"/><path d="M257 301V163Q257 109 262.0 84.0Q267 59 285.5 51.0Q304 43 344 40V0H29V40Q68 43 87.0 50.5Q106 58 112.0 82.0Q118 106 118 156V281Q118 340 116.0 376.5Q114 413 111 426Q105 452 88.0 460.0Q71 468 25 468V502L218 540L231 452H235Q268 493 313.5 516.5Q359 540 412 540Q476 540 515.5 522.5Q555 505 586 464Q603 441 616.0 404.5Q629 368 629 304V163Q629 109 634.0 84.0Q639 59 657.5 51.0Q676 43 714 40V0H401V40Q441 42 459.5 50.0Q478 58 484.0 82.5Q490 107 490 156V292Q490 394 464.5 434.5Q439 475 374 475Q342 475 319.0 457.0Q296 439 279 407Q273 395 268.0 378.0Q263 361 260.0 341.5Q257 322 257 301Z" transform="translate(25792.0000 0)"/><path d="M258 297V165Q258 110 263.0 84.0Q268 58 286.0 50.5Q304 43 344 40V0H28V40Q68 43 87.0 51.0Q106 59 112.0 83.0Q118 107 118 157V281Q118 338 116.5 376.5Q115 415 111 428Q105 454 89.5 461.0Q74 468 26 468V502L219 540L231 453H237Q279 500 322.0 520.0Q365 540 420 540Q486 540 529.0 517.0Q572 494 594 451H598Q634 493 684.5 516.5Q735 540 791 540Q850 540 895.0 525.0Q940 510 965 482Q985 460 994.5 422.0Q1004 384 1004 319V165Q1004 110 1009.5 84.5Q1015 59 1033.5 51.0Q1052 43 1091 40V0H775V40Q815 42 834.0 50.0Q853 58 858.5 82.5Q864 107 864 157V288Q864 392 839.0 433.5Q814 475 752 475Q717 475 694.5 458.0Q672 441 657 414Q649 399 643.0 380.0Q637 361 634.0 340.5Q631 320 631 297V165Q631 110 636.0 84.5Q641 59 659.5 51.0Q678 43 719 40V0H402V40Q442 43 461.0 51.0Q480 59 485.5 83.0Q491 107 491 157V288Q491 358 480.0 399.0Q469 440 444.0 457.5Q419 475 375 475Q342 475 320.5 459.0Q299 443 285 416Q277 400 270.5 381.0Q264 362 261.0 340.5Q258 319 258 297Z" transform="translate(26519.0000 0)"/><path d="M512 128 540 93Q449 -10 313 -10Q231 -10 169.0 24.0Q107 58 72.5 118.5Q38 179 38 258Q38 341 74.5 404.5Q111 468 176.0 504.0Q241 540 325 540Q431 540 490.0 482.5Q549 425 549 323Q549 307 544.0 303.5Q539 300 516 300H194Q192 295 191.0 287.0Q190 279 190 267Q190 202 209.5 154.5Q229 107 264.5 81.0Q300 55 348 55Q390 55 431.5 74.0Q473 93 512 128ZM201 356H346Q387 356 398.0 360.5Q409 365 409 382Q409 426 384.0 454.0Q359 482 321 482Q278 482 244.5 446.5Q211 411 201 356Z" transform="translate(27625.0000 0)"/><path d="M257 301V163Q257 109 262.0 84.0Q267 59 285.5 51.0Q304 43 344 40V0H29V40Q68 43 87.0 50.5Q106 58 112.0 82.0Q118 106 118 156V281Q118 340 116.0 376.5Q114 413 111 426Q105 452 88.0 460.0Q71 468 25 468V502L218 540L231 452H235Q268 493 313.5 516.5Q359 540 412 540Q476 540 515.5 522.5Q555 505 586 464Q603 441 616.0 404.5Q629 368 629 304V163Q629 109 634.0 84.0Q639 59 657.5 51.0Q676 43 714 40V0H401V40Q441 42 459.5 50.0Q478 58 484.0 82.5Q490 107 490 156V292Q490 394 464.5 434.5Q439 475 374 475Q342 475 319.0 457.0Q296 439 279 407Q273 395 268.0 378.0Q263 361 260.0 341.5Q257 322 257 301Z" transform="translate(28210.0000 0)"/><path d="M98 475H25V520Q84 537 125.0 572.0Q166 607 186 651H237V530H352V475H237V168Q237 107 251.0 80.5Q265 54 296 54Q316 54 330.5 62.5Q345 71 355 90L376 61Q348 -10 244 -10Q175 -10 136.5 22.0Q98 54 98 112Z" transform="translate(28937.0000 0)"/><path d="M107 35 85 0H54V182H96Q113 111 145.0 77.5Q177 44 228 44Q265 44 285.5 59.5Q306 75 306 102Q306 121 295.0 138.5Q284 156 260.5 174.5Q237 193 200 213Q150 241 118.5 267.5Q87 294 72.5 323.0Q58 352 58 386Q58 431 79.5 466.0Q101 501 138.0 521.0Q175 541 221 541Q252 541 283.0 532.0Q314 523 336 507L354 531H380V380H341Q318 437 293.5 462.0Q269 487 234 487Q206 487 189.5 472.0Q173 457 173 432Q173 404 198.0 379.0Q223 354 279 324Q333 295 366.5 267.0Q400 239 415.0 209.0Q430 179 430 143Q430 74 380.5 32.0Q331 -10 248 -10Q205 -10 168.0 1.5Q131 13 107 35Z" transform="translate(29319.0000 0)"/><path d="M54 64.08602150537635Q54 96 76.06451612903226 118.5Q98.12903225806451 141 129.48387096774195 141Q162 141 184.0 118.5Q206 96 206 64.08602150537635Q206 33.31182795698925 183.93548387096774 11.655913978494624Q161.8709677419355 -10 129.3548387096774 -10Q98 -10 76.0 11.655913978494624Q54 33.31182795698925 54 64.08602150537635Z" transform="translate(29785.0000 0)"/></g>
  <rect x="78" y="468" width="1044" height="1" fill="#7a0d06"/>
  <g transform="translate(78 520) scale(0.02200000 -0.02200000)" fill="#e9b3a8"><path d="M438 -10Q318 -10 230.5 36.5Q143 83 95.0 168.5Q47 254 47 371Q47 493 98.0 585.0Q149 677 240.0 728.5Q331 780 450 780Q512 780 568.0 763.0Q624 746 689 708L708 770H744V517H694Q681 580 649.5 624.0Q618 668 570.5 691.5Q523 715 462 715Q386 715 332.0 675.0Q278 635 249.0 560.0Q220 485 220 379Q220 224 282.5 140.5Q345 57 462 57Q518 57 558.5 77.0Q599 97 620.5 133.5Q642 170 642 221Q642 267 617.5 289.0Q593 311 537 315V355H861V315Q812 315 793.0 293.5Q774 272 774 216V83Q745 83 726.5 80.0Q708 77 687.5 67.0Q667 57 630 35Q592 13 543.5 1.5Q495 -10 438 -10Z" transform="translate(0.0000 0)"/><path d="M700 556Q700 485 662.0 435.5Q624 386 551.0 360.5Q478 335 372 335H287V159Q287 108 297.5 82.5Q308 57 339.0 48.5Q370 40 432 40V0H35V40Q80 42 102.5 50.5Q125 59 132.5 83.0Q140 107 140 154V616Q140 663 133.5 686.5Q127 710 107.0 719.0Q87 728 46 730V770H392Q544 770 622.0 715.5Q700 661 700 556ZM287 697V395H352Q448 395 493.5 434.5Q539 474 539 557Q539 632 500.5 673.0Q462 714 382 714H305Q287 714 287 697Z" transform="translate(876.0000 0)"/><path d="M438 -10Q318 -10 230.5 36.5Q143 83 95.0 168.5Q47 254 47 371Q47 493 98.0 585.0Q149 677 240.0 728.5Q331 780 450 780Q512 780 568.0 763.0Q624 746 689 708L708 770H744V517H694Q681 580 649.5 624.0Q618 668 570.5 691.5Q523 715 462 715Q386 715 332.0 675.0Q278 635 249.0 560.0Q220 485 220 379Q220 224 282.5 140.5Q345 57 462 57Q518 57 558.5 77.0Q599 97 620.5 133.5Q642 170 642 221Q642 267 617.5 289.0Q593 311 537 315V355H861V315Q812 315 793.0 293.5Q774 272 774 216V83Q745 83 726.5 80.0Q708 77 687.5 67.0Q667 57 630 35Q592 13 543.5 1.5Q495 -10 438 -10Z" transform="translate(1593.0000 0)"/><path d="M391 243H66V337H391Z" transform="translate(2469.0000 0)"/><path d="M512 128 540 93Q449 -10 313 -10Q231 -10 169.0 24.0Q107 58 72.5 118.5Q38 179 38 258Q38 341 74.5 404.5Q111 468 176.0 504.0Q241 540 325 540Q431 540 490.0 482.5Q549 425 549 323Q549 307 544.0 303.5Q539 300 516 300H194Q192 295 191.0 287.0Q190 279 190 267Q190 202 209.5 154.5Q229 107 264.5 81.0Q300 55 348 55Q390 55 431.5 74.0Q473 93 512 128ZM201 356H346Q387 356 398.0 360.5Q409 365 409 382Q409 426 384.0 454.0Q359 482 321 482Q278 482 244.5 446.5Q211 411 201 356Z" transform="translate(2926.0000 0)"/><path d="M257 301V163Q257 109 262.0 84.0Q267 59 285.5 51.0Q304 43 344 40V0H29V40Q68 43 87.0 50.5Q106 58 112.0 82.0Q118 106 118 156V281Q118 340 116.0 376.5Q114 413 111 426Q105 452 88.0 460.0Q71 468 25 468V502L218 540L231 452H235Q268 493 313.5 516.5Q359 540 412 540Q476 540 515.5 522.5Q555 505 586 464Q603 441 616.0 404.5Q629 368 629 304V163Q629 109 634.0 84.0Q639 59 657.5 51.0Q676 43 714 40V0H401V40Q441 42 459.5 50.0Q478 58 484.0 82.5Q490 107 490 156V292Q490 394 464.5 434.5Q439 475 374 475Q342 475 319.0 457.0Q296 439 279 407Q273 395 268.0 378.0Q263 361 260.0 341.5Q257 322 257 301Z" transform="translate(3511.0000 0)"/><path d="M502 121 528 83Q491 39 434.0 14.5Q377 -10 310 -10Q229 -10 168.0 24.5Q107 59 73.0 120.5Q39 182 39 262Q39 346 75.5 408.5Q112 471 177.0 505.5Q242 540 329 540Q388 540 435.0 524.5Q482 509 509.0 482.0Q536 455 536 420Q536 394 520.0 376.5Q504 359 474 359Q446 359 430.5 373.5Q415 388 400 410Q382 437 370.5 452.5Q359 468 348.0 475.0Q337 482 317 482Q258 482 225.5 429.0Q193 376 193 278Q193 172 231.5 114.0Q270 56 343 56Q383 56 424.0 73.0Q465 90 502 121Z" transform="translate(4238.0000 0)"/><path d="M258 203V155Q258 104 265.0 79.5Q272 55 295.0 48.0Q318 41 364 40V0H30V40Q71 43 89.5 51.0Q108 59 113.5 83.0Q119 107 119 157V279Q119 341 115.5 378.5Q112 416 102.5 435.5Q93 455 74.5 461.5Q56 468 26 468V503L226 540L242 425H246Q273 478 317.0 509.0Q361 540 410 540Q448 540 472.0 521.0Q496 502 496 473Q496 441 477.5 419.0Q459 397 427 397Q407 397 392.5 407.0Q378 417 366.0 427.0Q354 437 340 437Q321 437 304.0 412.0Q287 387 276 345Q268 315 263.0 277.5Q258 240 258 203Z" transform="translate(4802.0000 0)"/><path d="M516 323 287 -157Q266 -201 223.0 -230.5Q180 -260 136 -260Q103 -260 83.0 -244.0Q63 -228 63 -201Q63 -176 80.5 -162.0Q98 -148 137 -145Q183 -141 211.0 -127.0Q239 -113 252 -89L279 -37L102 401Q87 440 75.5 458.5Q64 477 49.0 483.0Q34 489 8 490V530H311V490Q272 490 256.5 482.5Q241 475 241 455Q241 448 243.5 437.0Q246 426 250 415L352 123H356L442 318Q460 360 469.5 383.5Q479 407 482.5 421.0Q486 435 486 446Q486 472 471.5 481.0Q457 490 413 490V530H654V490Q635 490 620.5 484.5Q606 479 592.0 462.0Q578 445 560.0 412.0Q542 379 516 323Z" transform="translate(5300.0000 0)"/><path d="M19 -250V-208Q55 -207 74.0 -197.5Q93 -188 99.5 -163.0Q106 -138 106 -90V282Q106 328 104.0 370.0Q102 412 99 428Q95 451 77.0 460.0Q59 469 17 469V508L218 536V465H222Q255 503 298.0 521.5Q341 540 394 540Q472 540 531.5 504.5Q591 469 625.0 407.0Q659 345 659 265Q659 186 625.0 123.5Q591 61 532.0 25.5Q473 -10 396 -10Q347 -10 310.5 6.0Q274 22 248 56H244V-83Q244 -136 252.5 -162.0Q261 -188 286.5 -197.0Q312 -206 364 -208V-250ZM388 56Q449 56 478.5 107.0Q508 158 508 263Q508 336 494.5 384.5Q481 433 454.5 458.0Q428 483 388 483Q356 483 327.0 469.0Q298 455 281 432Q265 410 255.5 375.0Q246 340 246 300V232Q246 198 255.0 167.0Q264 136 281 111Q300 84 327.0 70.0Q354 56 388 56Z" transform="translate(5946.0000 0)"/><path d="M98 475H25V520Q84 537 125.0 572.0Q166 607 186 651H237V530H352V475H237V168Q237 107 251.0 80.5Q265 54 296 54Q316 54 330.5 62.5Q345 71 355 90L376 61Q348 -10 244 -10Q175 -10 136.5 22.0Q98 54 98 112Z" transform="translate(6643.0000 0)"/><path d="M512 128 540 93Q449 -10 313 -10Q231 -10 169.0 24.0Q107 58 72.5 118.5Q38 179 38 258Q38 341 74.5 404.5Q111 468 176.0 504.0Q241 540 325 540Q431 540 490.0 482.5Q549 425 549 323Q549 307 544.0 303.5Q539 300 516 300H194Q192 295 191.0 287.0Q190 279 190 267Q190 202 209.5 154.5Q229 107 264.5 81.0Q300 55 348 55Q390 55 431.5 74.0Q473 93 512 128ZM201 356H346Q387 356 398.0 360.5Q409 365 409 382Q409 426 384.0 454.0Q359 482 321 482Q278 482 244.5 446.5Q211 411 201 356Z" transform="translate(7025.0000 0)"/><path d="M298 -10Q222 -10 163.5 24.5Q105 59 72.0 120.5Q39 182 39 261Q39 341 72.0 404.0Q105 467 162.5 503.5Q220 540 292 540Q342 540 381.0 525.0Q420 510 448 474H452V559Q452 618 450.5 660.5Q449 703 446 716Q442 737 416.0 746.5Q390 756 337 756V790L590 830V258Q590 184 591.5 143.0Q593 102 597 81Q602 55 615.0 47.5Q628 40 671 40V1L481 -10V64H477Q443 27 397.5 8.5Q352 -10 298 -10ZM450 248V287Q450 325 442.0 357.5Q434 390 418 415Q400 444 372.0 459.0Q344 474 312 474Q254 474 222.5 419.5Q191 365 191 263Q191 160 222.0 103.5Q253 47 311 47Q344 47 374.0 64.0Q404 81 423 110Q437 132 443.5 164.5Q450 197 450 248Z" transform="translate(7610.0000 0)"/><path d="M257 540V164Q257 111 262.5 85.0Q268 59 287.24050632911394 50.45Q306.4810126582278 41.9 344 40V0H29V39.729729729729726Q67 42 86.0090909090909 51.5Q105.01818181818182 61 111.5090909090909 85.5Q118 110 118 157V280Q118 338 116.0 376.0Q114 414 111 427Q106 452 88.5 460.0Q71 468 25 468V502ZM110 752.5Q110 785 132.5 807.5Q155 830 187.5 830Q220 830 242.5 807.5Q265 785 265 752.5Q265 720 242.5 697.5Q220 675 187.5 675Q155 675 132.5 697.5Q110 720 110 752.5Z" transform="translate(8570.0000 0)"/><path d="M257 301V163Q257 109 262.0 84.0Q267 59 285.5 51.0Q304 43 344 40V0H29V40Q68 43 87.0 50.5Q106 58 112.0 82.0Q118 106 118 156V281Q118 340 116.0 376.5Q114 413 111 426Q105 452 88.0 460.0Q71 468 25 468V502L218 540L231 452H235Q268 493 313.5 516.5Q359 540 412 540Q476 540 515.5 522.5Q555 505 586 464Q603 441 616.0 404.5Q629 368 629 304V163Q629 109 634.0 84.0Q639 59 657.5 51.0Q676 43 714 40V0H401V40Q441 42 459.5 50.0Q478 58 484.0 82.5Q490 107 490 156V292Q490 394 464.5 434.5Q439 475 374 475Q342 475 319.0 457.0Q296 439 279 407Q273 395 268.0 378.0Q263 361 260.0 341.5Q257 322 257 301Z" transform="translate(8931.0000 0)"/><path d="M19 -250V-208Q55 -207 74.0 -197.5Q93 -188 99.5 -163.0Q106 -138 106 -90V282Q106 328 104.0 370.0Q102 412 99 428Q95 451 77.0 460.0Q59 469 17 469V508L218 536V465H222Q255 503 298.0 521.5Q341 540 394 540Q472 540 531.5 504.5Q591 469 625.0 407.0Q659 345 659 265Q659 186 625.0 123.5Q591 61 532.0 25.5Q473 -10 396 -10Q347 -10 310.5 6.0Q274 22 248 56H244V-83Q244 -136 252.5 -162.0Q261 -188 286.5 -197.0Q312 -206 364 -208V-250ZM388 56Q449 56 478.5 107.0Q508 158 508 263Q508 336 494.5 384.5Q481 433 454.5 458.0Q428 483 388 483Q356 483 327.0 469.0Q298 455 281 432Q265 410 255.5 375.0Q246 340 246 300V232Q246 198 255.0 167.0Q264 136 281 111Q300 84 327.0 70.0Q354 56 388 56Z" transform="translate(9924.0000 0)"/><path d="M453 -10Q407 -10 382.5 17.5Q358 45 358 97H353Q326 47 279.0 19.0Q232 -9 176 -9Q130 -9 98.0 8.5Q66 26 50.0 54.0Q34 82 34 114Q34 163 74.5 201.5Q115 240 204 278L344 338V380Q344 437 323.5 464.0Q303 491 261 491Q232 491 217.0 476.5Q202 462 188 424Q180 401 163.0 386.0Q146 371 118 371Q90 371 74.5 387.5Q59 404 59 432Q59 483 112.0 511.5Q165 540 268 540Q382 540 430.0 500.0Q478 460 478 364V145Q478 101 486.5 80.5Q495 60 514 60Q522 60 530.5 63.0Q539 66 547 73L562 44Q549 20 519.0 5.0Q489 -10 453 -10ZM238 84Q266 84 290.0 98.0Q314 112 329.0 136.5Q344 161 344 190V285Q281 255 244.0 232.0Q207 209 191.0 188.0Q175 167 175 143Q175 116 192.0 100.0Q209 84 238 84Z" transform="translate(10621.0000 0)"/><path d="M107 35 85 0H54V182H96Q113 111 145.0 77.5Q177 44 228 44Q265 44 285.5 59.5Q306 75 306 102Q306 121 295.0 138.5Q284 156 260.5 174.5Q237 193 200 213Q150 241 118.5 267.5Q87 294 72.5 323.0Q58 352 58 386Q58 431 79.5 466.0Q101 501 138.0 521.0Q175 541 221 541Q252 541 283.0 532.0Q314 523 336 507L354 531H380V380H341Q318 437 293.5 462.0Q269 487 234 487Q206 487 189.5 472.0Q173 457 173 432Q173 404 198.0 379.0Q223 354 279 324Q333 295 366.5 267.0Q400 239 415.0 209.0Q430 179 430 143Q430 74 380.5 32.0Q331 -10 248 -10Q205 -10 168.0 1.5Q131 13 107 35Z" transform="translate(11195.0000 0)"/><path d="M107 35 85 0H54V182H96Q113 111 145.0 77.5Q177 44 228 44Q265 44 285.5 59.5Q306 75 306 102Q306 121 295.0 138.5Q284 156 260.5 174.5Q237 193 200 213Q150 241 118.5 267.5Q87 294 72.5 323.0Q58 352 58 386Q58 431 79.5 466.0Q101 501 138.0 521.0Q175 541 221 541Q252 541 283.0 532.0Q314 523 336 507L354 531H380V380H341Q318 437 293.5 462.0Q269 487 234 487Q206 487 189.5 472.0Q173 457 173 432Q173 404 198.0 379.0Q223 354 279 324Q333 295 366.5 267.0Q400 239 415.0 209.0Q430 179 430 143Q430 74 380.5 32.0Q331 -10 248 -10Q205 -10 168.0 1.5Q131 13 107 35Z" transform="translate(11661.0000 0)"/><path d="M65 274.0860215053763Q65 306 87.06451612903226 328.5Q109.12903225806451 351 140.48387096774195 351Q173 351 195.0 328.5Q217 306 217 274.0860215053763Q217 243.31182795698925 194.93548387096774 221.65591397849462Q172.8709677419355 200 140.3548387096774 200Q109 200 87.0 221.65591397849462Q65 243.31182795698925 65 274.0860215053763Z" transform="translate(12393.0000 0)"/><path d="M257 301V163Q257 109 262.0 84.0Q267 59 285.5 51.0Q304 43 344 40V0H29V40Q68 43 87.0 50.5Q106 58 112.0 82.0Q118 106 118 156V281Q118 340 116.0 376.5Q114 413 111 426Q105 452 88.0 460.0Q71 468 25 468V502L218 540L231 452H235Q268 493 313.5 516.5Q359 540 412 540Q476 540 515.5 522.5Q555 505 586 464Q603 441 616.0 404.5Q629 368 629 304V163Q629 109 634.0 84.0Q639 59 657.5 51.0Q676 43 714 40V0H401V40Q441 42 459.5 50.0Q478 58 484.0 82.5Q490 107 490 156V292Q490 394 464.5 434.5Q439 475 374 475Q342 475 319.0 457.0Q296 439 279 407Q273 395 268.0 378.0Q263 361 260.0 341.5Q257 322 257 301Z" transform="translate(12940.0000 0)"/><path d="M328.0988023952096 540Q388 540 441.0 520.0Q494 500 535.0 463.5Q576 427 599.5 377.5Q623 328 623 269Q623 208 599.5 157.0Q576 106 535.0 68.5Q494 31 440.7547169811321 10.5Q387.50943396226415 -10 328 -10Q269.1696750902527 -10 216.64259927797835 10.5Q164.11552346570397 31 123.66967509025271 68.5Q83.22382671480145 106 60.111913357400724 157.0Q37 208 37 269Q37 348 76.93413173652695 409.0Q116.86826347305389 470 183.0748502994012 505.0Q249.2814371257485 540 328.0988023952096 540ZM328.32 482Q288 482 257.5 455.0Q227 428 210.5 379.9047619047619Q194 331.8095238095238 194 268Q194 169 230.37551867219918 110.0Q266.75103734439836 51 328.05809128630705 51Q391 51 428.5 110.25850340136054Q466 169.51700680272108 466 267.9625850340136Q466 332 449.0 380.0Q432 428 401.1428571428571 455.0Q370.2857142857143 482 328.32 482Z" transform="translate(13667.0000 0)"/><path d="M19 -250V-208Q55 -207 74.0 -197.5Q93 -188 99.5 -163.0Q106 -138 106 -90V282Q106 328 104.0 370.0Q102 412 99 428Q95 451 77.0 460.0Q59 469 17 469V508L218 536V465H222Q255 503 298.0 521.5Q341 540 394 540Q472 540 531.5 504.5Q591 469 625.0 407.0Q659 345 659 265Q659 186 625.0 123.5Q591 61 532.0 25.5Q473 -10 396 -10Q347 -10 310.5 6.0Q274 22 248 56H244V-83Q244 -136 252.5 -162.0Q261 -188 286.5 -197.0Q312 -206 364 -208V-250ZM388 56Q449 56 478.5 107.0Q508 158 508 263Q508 336 494.5 384.5Q481 433 454.5 458.0Q428 483 388 483Q356 483 327.0 469.0Q298 455 281 432Q265 410 255.5 375.0Q246 340 246 300V232Q246 198 255.0 167.0Q264 136 281 111Q300 84 327.0 70.0Q354 56 388 56Z" transform="translate(14593.0000 0)"/><path d="M247 830V164Q247 111 252.5 85.0Q258 59 277.0 50.5Q296 42 334 40V0H19V40Q57 42 76.0 51.5Q95 61 101.5 85.5Q108 110 108 157V570Q108 628 106.0 666.0Q104 704 101 717Q96 742 78.5 750.0Q61 758 15 758V792Z" transform="translate(15290.0000 0)"/><path d="M453 -10Q407 -10 382.5 17.5Q358 45 358 97H353Q326 47 279.0 19.0Q232 -9 176 -9Q130 -9 98.0 8.5Q66 26 50.0 54.0Q34 82 34 114Q34 163 74.5 201.5Q115 240 204 278L344 338V380Q344 437 323.5 464.0Q303 491 261 491Q232 491 217.0 476.5Q202 462 188 424Q180 401 163.0 386.0Q146 371 118 371Q90 371 74.5 387.5Q59 404 59 432Q59 483 112.0 511.5Q165 540 268 540Q382 540 430.0 500.0Q478 460 478 364V145Q478 101 486.5 80.5Q495 60 514 60Q522 60 530.5 63.0Q539 66 547 73L562 44Q549 20 519.0 5.0Q489 -10 453 -10ZM238 84Q266 84 290.0 98.0Q314 112 329.0 136.5Q344 161 344 190V285Q281 255 244.0 232.0Q207 209 191.0 188.0Q175 167 175 143Q175 116 192.0 100.0Q209 84 238 84Z" transform="translate(15645.0000 0)"/><path d="M257 540V164Q257 111 262.5 85.0Q268 59 287.24050632911394 50.45Q306.4810126582278 41.9 344 40V0H29V39.729729729729726Q67 42 86.0090909090909 51.5Q105.01818181818182 61 111.5090909090909 85.5Q118 110 118 157V280Q118 338 116.0 376.0Q114 414 111 427Q106 452 88.5 460.0Q71 468 25 468V502ZM110 752.5Q110 785 132.5 807.5Q155 830 187.5 830Q220 830 242.5 807.5Q265 785 265 752.5Q265 720 242.5 697.5Q220 675 187.5 675Q155 675 132.5 697.5Q110 720 110 752.5Z" transform="translate(16219.0000 0)"/><path d="M257 301V163Q257 109 262.0 84.0Q267 59 285.5 51.0Q304 43 344 40V0H29V40Q68 43 87.0 50.5Q106 58 112.0 82.0Q118 106 118 156V281Q118 340 116.0 376.5Q114 413 111 426Q105 452 88.0 460.0Q71 468 25 468V502L218 540L231 452H235Q268 493 313.5 516.5Q359 540 412 540Q476 540 515.5 522.5Q555 505 586 464Q603 441 616.0 404.5Q629 368 629 304V163Q629 109 634.0 84.0Q639 59 657.5 51.0Q676 43 714 40V0H401V40Q441 42 459.5 50.0Q478 58 484.0 82.5Q490 107 490 156V292Q490 394 464.5 434.5Q439 475 374 475Q342 475 319.0 457.0Q296 439 279 407Q273 395 268.0 378.0Q263 361 260.0 341.5Q257 322 257 301Z" transform="translate(16580.0000 0)"/><path d="M98 475H25V520Q84 537 125.0 572.0Q166 607 186 651H237V530H352V475H237V168Q237 107 251.0 80.5Q265 54 296 54Q316 54 330.5 62.5Q345 71 355 90L376 61Q348 -10 244 -10Q175 -10 136.5 22.0Q98 54 98 112Z" transform="translate(17307.0000 0)"/><path d="M512 128 540 93Q449 -10 313 -10Q231 -10 169.0 24.0Q107 58 72.5 118.5Q38 179 38 258Q38 341 74.5 404.5Q111 468 176.0 504.0Q241 540 325 540Q431 540 490.0 482.5Q549 425 549 323Q549 307 544.0 303.5Q539 300 516 300H194Q192 295 191.0 287.0Q190 279 190 267Q190 202 209.5 154.5Q229 107 264.5 81.0Q300 55 348 55Q390 55 431.5 74.0Q473 93 512 128ZM201 356H346Q387 356 398.0 360.5Q409 365 409 382Q409 426 384.0 454.0Q359 482 321 482Q278 482 244.5 446.5Q211 411 201 356Z" transform="translate(17689.0000 0)"/><path d="M353 336 406 404Q427 431 434.0 442.0Q441 453 441 464Q441 478 429.5 484.0Q418 490 391 490V530H621V490Q596 489 577.0 483.0Q558 477 537.5 461.0Q517 445 489 412L387 294L545 91Q568 61 590.0 50.5Q612 40 645 40V0H327V40Q356 40 367.5 45.5Q379 51 379 64Q379 75 372.0 88.0Q365 101 351 120L293 200L249 147Q226 119 215.5 104.5Q205 90 202.0 83.0Q199 76 199 71Q199 55 213.5 47.5Q228 40 260 40V0H9V40Q30 40 50.5 44.0Q71 48 89.0 57.0Q107 66 118 79L257 242L90 454Q71 478 56.5 484.0Q42 490 17 490V530H322V490Q271 490 271 462Q271 452 282 436Z" transform="translate(18274.0000 0)"/><path d="M98 475H25V520Q84 537 125.0 572.0Q166 607 186 651H237V530H352V475H237V168Q237 107 251.0 80.5Q265 54 296 54Q316 54 330.5 62.5Q345 71 355 90L376 61Q348 -10 244 -10Q175 -10 136.5 22.0Q98 54 98 112Z" transform="translate(18922.0000 0)"/><path d="M35 0V40Q75 42 94.0 50.5Q113 59 119.0 83.5Q125 108 125 158V475H17V530H125V586Q125 659 157.0 713.5Q189 768 246.0 799.0Q303 830 378 830Q446 830 490.0 806.0Q534 782 534 745Q534 723 517.0 707.5Q500 692 474 692Q449 692 437.0 708.0Q425 724 402 748Q385 766 374.0 770.0Q363 774 355 774Q336 774 317.0 764.5Q298 755 285 735Q272 715 268.0 684.0Q264 653 264 602V530H433V475H264V166Q264 116 273.0 89.0Q282 62 305.5 51.5Q329 41 373 40V0Z" transform="translate(19570.0000 0)"/><path d="M453 -10Q407 -10 382.5 17.5Q358 45 358 97H353Q326 47 279.0 19.0Q232 -9 176 -9Q130 -9 98.0 8.5Q66 26 50.0 54.0Q34 82 34 114Q34 163 74.5 201.5Q115 240 204 278L344 338V380Q344 437 323.5 464.0Q303 491 261 491Q232 491 217.0 476.5Q202 462 188 424Q180 401 163.0 386.0Q146 371 118 371Q90 371 74.5 387.5Q59 404 59 432Q59 483 112.0 511.5Q165 540 268 540Q382 540 430.0 500.0Q478 460 478 364V145Q478 101 486.5 80.5Q495 60 514 60Q522 60 530.5 63.0Q539 66 547 73L562 44Q549 20 519.0 5.0Q489 -10 453 -10ZM238 84Q266 84 290.0 98.0Q314 112 329.0 136.5Q344 161 344 190V285Q281 255 244.0 232.0Q207 209 191.0 188.0Q175 167 175 143Q175 116 192.0 100.0Q209 84 238 84Z" transform="translate(20013.0000 0)"/><path d="M247 830V164Q247 111 252.5 85.0Q258 59 277.0 50.5Q296 42 334 40V0H19V40Q57 42 76.0 51.5Q95 61 101.5 85.5Q108 110 108 157V570Q108 628 106.0 666.0Q104 704 101 717Q96 742 78.5 750.0Q61 758 15 758V792Z" transform="translate(20587.0000 0)"/><path d="M247 830V164Q247 111 252.5 85.0Q258 59 277.0 50.5Q296 42 334 40V0H19V40Q57 42 76.0 51.5Q95 61 101.5 85.5Q108 110 108 157V570Q108 628 106.0 666.0Q104 704 101 717Q96 742 78.5 750.0Q61 758 15 758V792Z" transform="translate(20942.0000 0)"/><path d="M376 -11Q321 -11 272.5 10.5Q224 32 195 67L119 0H85V595Q85 689 72 724Q68 734 62.0 739.5Q56 745 42.0 748.5Q28 752 -1 756V790L223 830V461H227Q253 499 294.0 519.5Q335 540 387 540Q458 540 514.0 503.5Q570 467 603.0 405.0Q636 343 636 266Q636 187 600.5 124.0Q565 61 506.0 25.0Q447 -11 376 -11ZM362 47Q402 47 429.0 71.5Q456 96 470.0 144.5Q484 193 484 264Q484 333 470.5 380.5Q457 428 430.0 452.5Q403 477 362 477Q326 477 295.5 457.5Q265 438 248 403Q225 355 225 282V219Q225 170 243.0 131.0Q261 92 292.0 69.5Q323 47 362 47Z" transform="translate(21297.0000 0)"/><path d="M453 -10Q407 -10 382.5 17.5Q358 45 358 97H353Q326 47 279.0 19.0Q232 -9 176 -9Q130 -9 98.0 8.5Q66 26 50.0 54.0Q34 82 34 114Q34 163 74.5 201.5Q115 240 204 278L344 338V380Q344 437 323.5 464.0Q303 491 261 491Q232 491 217.0 476.5Q202 462 188 424Q180 401 163.0 386.0Q146 371 118 371Q90 371 74.5 387.5Q59 404 59 432Q59 483 112.0 511.5Q165 540 268 540Q382 540 430.0 500.0Q478 460 478 364V145Q478 101 486.5 80.5Q495 60 514 60Q522 60 530.5 63.0Q539 66 547 73L562 44Q549 20 519.0 5.0Q489 -10 453 -10ZM238 84Q266 84 290.0 98.0Q314 112 329.0 136.5Q344 161 344 190V285Q281 255 244.0 232.0Q207 209 191.0 188.0Q175 167 175 143Q175 116 192.0 100.0Q209 84 238 84Z" transform="translate(21971.0000 0)"/><path d="M502 121 528 83Q491 39 434.0 14.5Q377 -10 310 -10Q229 -10 168.0 24.5Q107 59 73.0 120.5Q39 182 39 262Q39 346 75.5 408.5Q112 471 177.0 505.5Q242 540 329 540Q388 540 435.0 524.5Q482 509 509.0 482.0Q536 455 536 420Q536 394 520.0 376.5Q504 359 474 359Q446 359 430.5 373.5Q415 388 400 410Q382 437 370.5 452.5Q359 468 348.0 475.0Q337 482 317 482Q258 482 225.5 429.0Q193 376 193 278Q193 172 231.5 114.0Q270 56 343 56Q383 56 424.0 73.0Q465 90 502 121Z" transform="translate(22545.0000 0)"/><path d="M16 0V40Q53 41 72.0 50.5Q91 60 98.0 85.0Q105 110 105 157V581Q105 647 102.5 687.0Q100 727 83 742Q73 751 57.5 753.0Q42 755 19 755V792L242 830V274L338 365Q390 414 412.0 439.0Q434 464 434 474Q434 483 415.5 486.5Q397 490 347 490V530H620V490Q595 490 574.0 484.5Q553 479 533.0 466.5Q513 454 490 432L393 341L566 96Q582 75 596.0 62.5Q610 50 627.5 45.0Q645 40 669 40V0H358V40Q390 40 403.0 42.5Q416 45 416 52Q416 59 405.0 79.0Q394 99 368 137L292 251L242 203V164Q242 112 247.5 85.5Q253 59 268.0 49.5Q283 40 311 40V0Z" transform="translate(23109.0000 0)"/></g>
</svg>
